<svg xmlns="http://www.w3.org/2000/svg" width="26.143" height="26.143" viewBox="0 0 26.143 26.143">
  <g id="Group_1415" data-name="Group 1415" transform="translate(0)">
    <path id="Path_1314" data-name="Path 1314" d="M23.08,0H3.064A3.067,3.067,0,0,0,0,3.064V23.08a3.067,3.067,0,0,0,3.064,3.064H23.08a3.067,3.067,0,0,0,3.064-3.064V3.064A3.067,3.067,0,0,0,23.08,0ZM24.1,23.08A1.022,1.022,0,0,1,23.08,24.1H17.259V15.778h3.155l.521-3.166H17.259v-2.2a1.506,1.506,0,0,1,1.532-1.532h2.094V5.719H18.791a4.7,4.7,0,0,0-4.7,4.707v2.187H11.029v3.166h3.065V24.1H3.064A1.022,1.022,0,0,1,2.042,23.08V3.064A1.022,1.022,0,0,1,3.064,2.042H23.08A1.022,1.022,0,0,1,24.1,3.064Z" fill="#fff"/>
  </g>
</svg>
