<svg id="instagram_5_" data-name="instagram (5)" xmlns="http://www.w3.org/2000/svg" width="29.323" height="29.328" viewBox="0 0 29.323 29.328">
  <path id="Path_1311" data-name="Path 1311" d="M29.7,8.623a10.716,10.716,0,0,0-.682-3.558A7.513,7.513,0,0,0,24.724.773,10.744,10.744,0,0,0,21.166.092C19.6.017,19.1,0,15.116,0s-4.48.017-6.044.086A10.72,10.72,0,0,0,5.513.768a7.156,7.156,0,0,0-2.6,1.7,7.221,7.221,0,0,0-1.69,2.6A10.745,10.745,0,0,0,.54,8.617c-.075,1.57-.092,2.068-.092,6.05s.017,4.48.086,6.044a10.716,10.716,0,0,0,.682,3.558,7.512,7.512,0,0,0,4.291,4.291,10.746,10.746,0,0,0,3.558.682c1.564.069,2.063.086,6.044.086s4.48-.017,6.044-.086a10.714,10.714,0,0,0,3.558-.682A7.5,7.5,0,0,0,29,24.269a10.752,10.752,0,0,0,.682-3.558c.069-1.564.086-2.063.086-6.044s-.006-4.48-.075-6.044ZM27.056,20.6a8.039,8.039,0,0,1-.5,2.721A4.865,4.865,0,0,1,23.767,26.1a8.067,8.067,0,0,1-2.721.5c-1.547.069-2.011.086-5.924.086s-4.383-.017-5.924-.086a8.035,8.035,0,0,1-2.721-.5,4.513,4.513,0,0,1-1.684-1.094A4.56,4.56,0,0,1,3.7,23.324a8.068,8.068,0,0,1-.5-2.721c-.069-1.547-.086-2.011-.086-5.924s.017-4.383.086-5.924a8.034,8.034,0,0,1,.5-2.721A4.458,4.458,0,0,1,4.8,4.349,4.553,4.553,0,0,1,6.482,3.254,8.073,8.073,0,0,1,9.2,2.75c1.547-.069,2.011-.086,5.924-.086s4.383.017,5.924.086a8.039,8.039,0,0,1,2.721.5,4.51,4.51,0,0,1,1.684,1.094,4.559,4.559,0,0,1,1.094,1.685,8.071,8.071,0,0,1,.5,2.721c.069,1.547.086,2.011.086,5.924s-.017,4.371-.086,5.918Zm0,0" transform="translate(-0.449 0)" fill="#fff"/>
  <path id="Path_1312" data-name="Path 1312" d="M132.483,124.5a7.534,7.534,0,1,0,7.534,7.534A7.536,7.536,0,0,0,132.483,124.5Zm0,12.421a4.887,4.887,0,1,1,4.887-4.887A4.888,4.888,0,0,1,132.483,136.921Zm0,0" transform="translate(-117.816 -117.367)" fill="#fff"/>
  <path id="Path_1313" data-name="Path 1313" d="M365.968,90.361a1.759,1.759,0,1,1-1.759-1.759,1.759,1.759,0,0,1,1.759,1.759Zm0,0" transform="translate(-341.71 -83.526)" fill="#fff"/>
</svg>
