<svg id="linkedin_3_" data-name="linkedin (3)" xmlns="http://www.w3.org/2000/svg" width="25.881" height="25.881" viewBox="0 0 25.881 25.881">
  <path id="Path_1622" data-name="Path 1622" d="M25.209,25.287h.006V15.794c0-4.643-1-8.22-6.428-8.22a5.635,5.635,0,0,0-5.076,2.79h-.075V8.008H8.489V25.286h5.359V16.73c0-2.253.427-4.431,3.217-4.431,2.749,0,2.79,2.571,2.79,4.576v8.412Z" transform="translate(0.665 0.594)" fill="#fff"/>
  <path id="Path_1623" data-name="Path 1623" d="M.4,7.977H5.762V25.256H.4Z" transform="translate(0.031 0.625)" fill="#fff"/>
  <path id="Path_1624" data-name="Path 1624" d="M3.108,0A3.122,3.122,0,1,0,6.216,3.108,3.109,3.109,0,0,0,3.108,0Z" fill="#fff"/>
</svg>
