<svg xmlns="http://www.w3.org/2000/svg" xmlns:xlink="http://www.w3.org/1999/xlink" width="141.73" height="22.316" viewBox="0 0 141.73 22.316">
  <defs>
    <clipPath id="clip-path">
      <path id="Path_1209" data-name="Path 1209" d="M157.314,259.876a1.224,1.224,0,0,1,.495-.083,1.132,1.132,0,0,1,.5.083v20.46a1.049,1.049,0,0,1-.5.082,2.176,2.176,0,0,1-.784-.082L143.66,261.36v18.975a.969.969,0,0,1-.5.082,1.229,1.229,0,0,1-.5-.082V259.917c.083-.124.165-.124.371-.124a2.289,2.289,0,0,1,.784.083l13.488,19.181Z" transform="translate(-142.67 -259.793)" fill="none"/>
    </clipPath>
    <linearGradient id="linear-gradient" y1="0.5" x2="1" y2="0.5" gradientUnits="objectBoundingBox">
      <stop offset="0" stop-color="#366db5"/>
      <stop offset="1" stop-color="#55c2db"/>
    </linearGradient>
    <clipPath id="clip-path-2">
      <path id="Path_1210" data-name="Path 1210" d="M225.6,282.55a22.583,22.583,0,0,1,5.115.577h.289V280.9c0-3.836-1.98-4.744-6.27-4.744a16.13,16.13,0,0,0-3.877.413,1.765,1.765,0,0,1-.248-.908,18.684,18.684,0,0,1,4.5-.536c4.166,0,6.889,1.32,6.889,5.816v10.807a.97.97,0,0,1-.5.082,1.135,1.135,0,0,1-.5-.082V288.82a8.946,8.946,0,0,1-6.27,3.218c-3.795,0-5.569-1.774-5.569-4.909C219.169,283.251,222.552,282.55,225.6,282.55Zm-.908,8.456c2.64,0,4.7-1.773,6.311-3.465v-3.63c-1.732-.247-4.661-.454-5.321-.454-1.526,0-5.528.247-5.528,3.589C220.159,289.645,221.6,291.006,224.7,291.006Z" transform="translate(-219.169 -275.125)" fill="none"/>
    </clipPath>
    <clipPath id="clip-path-3">
      <path id="Path_1211" data-name="Path 1211" d="M325.528,263.265a1.047,1.047,0,0,1,.5-.083,1.225,1.225,0,0,1,.5.083v1.444a1.229,1.229,0,0,1-.5.082,1.049,1.049,0,0,1-.5-.082Zm.99,19.593a1.531,1.531,0,0,1-.99,0V266.523a1.526,1.526,0,0,1,.99,0Z" transform="translate(-325.528 -263.182)" fill="none"/>
    </clipPath>
    <clipPath id="clip-path-4">
      <path id="Path_1212" data-name="Path 1212" d="M359.3,281.684V285.6c0,3.506,0,6.435-6.476,6.435s-6.476-2.929-6.476-6.435v-3.919c0-3.506,0-6.559,6.476-6.559S359.3,278.177,359.3,281.684Zm-.99.289c0-3.919-.206-5.816-5.486-5.816s-5.486,1.856-5.486,5.816v3.3c0,3.836.206,5.734,5.486,5.734s5.486-1.9,5.486-5.734Z" transform="translate(-346.347 -275.125)" fill="none"/>
    </clipPath>
    <clipPath id="clip-path-5">
      <path id="Path_1213" data-name="Path 1213" d="M282.388,256.809a1.526,1.526,0,0,1,.99,0v4.826h4.043a1.334,1.334,0,0,1,.082.5,1.733,1.733,0,0,1-.082.578h-4.043v11.055c0,2.681.578,3.341,2.6,3.341h1.4a.752.752,0,0,1,.165.5.789.789,0,0,1-.165.536H286.6c-3.424,0-4.208-.66-4.208-4.29V262.707H279.13a1.728,1.728,0,0,1-.083-.578,1.331,1.331,0,0,1,.083-.5h3.258Z" transform="translate(-279.047 -256.726)" fill="none"/>
    </clipPath>
    <clipPath id="clip-path-6">
      <path id="Path_1214" data-name="Path 1214" d="M415.085,276.692c1.526-1.4,4.084-1.567,5.733-1.567,4.827,0,6.1,2.475,6.1,5.9v10.725a1.135,1.135,0,0,1-.5.082,1.227,1.227,0,0,1-.495-.082v-9.776c0-2.888-.206-5.816-5.28-5.816-4.208,0-5.692,1.774-5.692,2.846v12.746a1.221,1.221,0,0,1-.536.082,1.058,1.058,0,0,1-.454-.082V275.414a1.649,1.649,0,0,1,1.031,0Z" transform="translate(-413.971 -275.125)" fill="none"/>
    </clipPath>
    <clipPath id="clip-path-7">
      <path id="Path_1215" data-name="Path 1215" d="M471.269,280.335a1.135,1.135,0,0,1-.5.082,1.229,1.229,0,0,1-.5-.082V260.824h-6.352a1.335,1.335,0,0,1-.082-.5,1.414,1.414,0,0,1,.082-.536h44.068a1.41,1.41,0,0,1,.083.536,1.331,1.331,0,0,1-.083.5H471.269Z" transform="translate(-463.844 -259.793)" fill="none"/>
    </clipPath>
    <clipPath id="clip-path-8">
      <path id="Path_1216" data-name="Path 1216" d="M584.75,286.1c0,3.589,2.681,4.909,5.981,4.909a27.55,27.55,0,0,0,5.032-.413c.124.083.165.371.165.619v.413a31.326,31.326,0,0,1-5.156.413c-4.084,0-7.013-1.609-7.013-6.064v-4.7c0-4.5,2.929-6.146,7.013-6.146a24.522,24.522,0,0,1,5.115.536,1.546,1.546,0,0,1-.206.949,21.038,21.038,0,0,0-4.95-.454c-3.3,0-5.981,1.238-5.981,4.867Z" transform="translate(-583.76 -275.125)" fill="none"/>
    </clipPath>
    <clipPath id="clip-path-9">
      <path id="Path_1217" data-name="Path 1217" d="M647.532,261.118c1.526-1.526,4.207-1.733,5.857-1.733,4.826,0,6.1,2.475,6.1,5.9v10.725a1.136,1.136,0,0,1-.5.082,1.227,1.227,0,0,1-.495-.082v-9.776c0-2.888-.206-5.816-5.28-5.816-4.208,0-5.693,1.774-5.693,2.846v12.746a1.222,1.222,0,0,1-.536.082,1.057,1.057,0,0,1-.454-.082V254.065a1.054,1.054,0,0,1,.454-.083,1.219,1.219,0,0,1,.536.083Z" transform="translate(-646.542 -253.982)" fill="none"/>
    </clipPath>
    <clipPath id="clip-path-10">
      <path id="Path_1218" data-name="Path 1218" d="M518.88,286.18V282.8c0-5.28,1.238-7.672,6.476-7.672,5.651,0,6.393,2.392,6.393,6.559v2.392H519.87v2.145c0,3.63,2.8,4.785,6.022,4.785a25.87,25.87,0,0,0,5.2-.413,1.548,1.548,0,0,1,.248.99,28.9,28.9,0,0,1-5.4.454C521.891,292.037,518.88,290.634,518.88,286.18Zm.99-3.176h10.89v-2.475c0-2.64-.743-4.372-5.4-4.372C520.86,276.156,519.911,277.93,519.87,283Z" transform="translate(-518.88 -275.125)" fill="none"/>
    </clipPath>
  </defs>
  <g id="Group_1431" data-name="Group 1431" transform="translate(-142.67 -253.982)">
    <g id="Group_1412" data-name="Group 1412" transform="translate(142.67 255.467)">
      <g id="Group_1411" data-name="Group 1411" clip-path="url(#clip-path)">
        <rect id="Rectangle_2326" data-name="Rectangle 2326" width="145.549" height="25.818" transform="translate(-1.592 -3.064)" fill="url(#linear-gradient)"/>
      </g>
    </g>
    <g id="Group_1414" data-name="Group 1414" transform="translate(162.221 259.386)">
      <g id="Group_1413" data-name="Group 1413" transform="translate(0)" clip-path="url(#clip-path-2)">
        <rect id="Rectangle_2327" data-name="Rectangle 2327" width="145.549" height="25.818" transform="translate(-21.143 -6.982)" fill="url(#linear-gradient)"/>
      </g>
    </g>
    <g id="Group_1416" data-name="Group 1416" transform="translate(189.404 256.333)">
      <g id="Group_1415" data-name="Group 1415" transform="translate(0 0)" clip-path="url(#clip-path-3)">
        <rect id="Rectangle_2328" data-name="Rectangle 2328" width="145.549" height="25.818" transform="translate(-48.326 -3.93)" fill="url(#linear-gradient)"/>
      </g>
    </g>
    <g id="Group_1418" data-name="Group 1418" transform="translate(194.725 259.386)">
      <g id="Group_1417" data-name="Group 1417" clip-path="url(#clip-path-4)">
        <rect id="Rectangle_2329" data-name="Rectangle 2329" width="145.549" height="25.818" transform="translate(-53.647 -6.982)" fill="url(#linear-gradient)"/>
      </g>
    </g>
    <g id="Group_1420" data-name="Group 1420" transform="translate(177.525 254.683)">
      <g id="Group_1419" data-name="Group 1419" clip-path="url(#clip-path-5)">
        <rect id="Rectangle_2330" data-name="Rectangle 2330" width="145.549" height="25.818" transform="translate(-36.447 -2.28)" fill="url(#linear-gradient)"/>
      </g>
    </g>
    <g id="Group_1422" data-name="Group 1422" transform="translate(212.008 259.386)">
      <g id="Group_1421" data-name="Group 1421" transform="translate(0)" clip-path="url(#clip-path-6)">
        <rect id="Rectangle_2331" data-name="Rectangle 2331" width="145.549" height="25.818" transform="translate(-70.93 -6.982)" fill="url(#linear-gradient)"/>
      </g>
    </g>
    <g id="Group_1424" data-name="Group 1424" transform="translate(224.755 255.467)">
      <g id="Group_1423" data-name="Group 1423" clip-path="url(#clip-path-7)">
        <rect id="Rectangle_2332" data-name="Rectangle 2332" width="145.549" height="25.818" transform="translate(-83.677 -3.064)" fill="url(#linear-gradient)"/>
      </g>
    </g>
    <g id="Group_1426" data-name="Group 1426" transform="translate(255.403 259.386)">
      <g id="Group_1425" data-name="Group 1425" transform="translate(0)" clip-path="url(#clip-path-8)">
        <rect id="Rectangle_2333" data-name="Rectangle 2333" width="145.549" height="25.818" transform="translate(-114.325 -6.982)" fill="url(#linear-gradient)"/>
      </g>
    </g>
    <g id="Group_1428" data-name="Group 1428" transform="translate(271.448 253.982)">
      <g id="Group_1427" data-name="Group 1427" transform="translate(0)" clip-path="url(#clip-path-9)">
        <rect id="Rectangle_2334" data-name="Rectangle 2334" width="145.549" height="25.818" transform="translate(-130.37 -1.579)" fill="url(#linear-gradient)"/>
      </g>
    </g>
    <g id="Group_1430" data-name="Group 1430" transform="translate(238.821 259.386)">
      <g id="Group_1429" data-name="Group 1429" transform="translate(0)" clip-path="url(#clip-path-10)">
        <rect id="Rectangle_2335" data-name="Rectangle 2335" width="145.549" height="25.818" transform="translate(-97.743 -6.982)" fill="url(#linear-gradient)"/>
      </g>
    </g>
  </g>
</svg>
