<svg id="smartphone" xmlns="http://www.w3.org/2000/svg" width="13.747" height="25.064" viewBox="0 0 13.747 25.064">
  <g id="Group_44" data-name="Group 44">
    <path id="Path_724" data-name="Path 724" d="M124.822,0h-8.467a2.661,2.661,0,0,0-2.663,2.613V22.454a2.636,2.636,0,0,0,2.637,2.61l8.481-.009a2.619,2.619,0,0,0,2.617-2.61l.012-19.833A2.613,2.613,0,0,0,124.822,0Zm-5.457,1.567h2.457a.392.392,0,1,1,0,.783h-2.457a.392.392,0,1,1,0-.783Zm-1.476.125a.406.406,0,0,1,.554,0,.393.393,0,0,1-.276.67.4.4,0,0,1-.278-.115.4.4,0,0,1,0-.554Zm2.625,22.6a1.172,1.172,0,1,1,1.172-1.172A1.173,1.173,0,0,1,120.514,24.288Zm5.709-3.14H115.063V3.721h11.161Z" transform="translate(-113.692)" fill="#fff"/>
  </g>
</svg>
