<svg xmlns="http://www.w3.org/2000/svg" width="17.733" height="13.3" viewBox="0 0 17.733 13.3">
  <g id="envelope" transform="translate(0 0)">
    <g id="Group_47" data-name="Group 47">
      <g id="Group_46" data-name="Group 46">
        <path id="Path_726" data-name="Path 726" d="M7.044,65.079c2.434,2.061,6.7,5.687,7.96,6.818a.741.741,0,0,0,1.073,0c1.256-1.132,5.527-4.758,7.961-6.819a.369.369,0,0,0,.052-.51A1.467,1.467,0,0,0,22.93,64H8.152a1.467,1.467,0,0,0-1.16.569A.369.369,0,0,0,7.044,65.079Z" transform="translate(-6.674 -64)" fill="#fff"/>
        <path id="Path_727" data-name="Path 727" d="M17.519,126.446a.368.368,0,0,0-.394.053c-2.7,2.288-6.144,5.221-7.228,6.2a1.5,1.5,0,0,1-2.062,0c-1.155-1.041-5.024-4.329-7.227-6.2a.369.369,0,0,0-.608.282v9.291a1.479,1.479,0,0,0,1.478,1.478H16.255a1.479,1.479,0,0,0,1.478-1.478v-9.291A.369.369,0,0,0,17.519,126.446Z" transform="translate(0 -124.25)" fill="#fff"/>
      </g>
    </g>
  </g>
</svg>
